<svg xmlns="http://www.w3.org/2000/svg" version="1.1" xmlns:xlink="http://www.w3.org/1999/xlink" xmlns:svgjs="http://svgjs.dev/svgjs" width="2000" height="1500" viewBox="0 0 2000 1500"><rect width="2000" height="1500" fill="#444444"></rect><g transform="matrix(0.75,0,0,0.75,249.090909090909,514.1862015496724)"><svg viewBox="0 0 396 124" data-background-color="#444444" preserveAspectRatio="xMidYMid meet" height="626" width="2000" xmlns="http://www.w3.org/2000/svg" xmlns:xlink="http://www.w3.org/1999/xlink"><g id="tight-bounds" transform="matrix(1,0,0,1,0.2400000000000091,0.28096061307905984)"><svg viewBox="0 0 395.52 123.43807877384185" height="123.43807877384185" width="395.52"><g><svg viewBox="0 0 395.52 123.43807877384185" height="123.43807877384185" width="395.52"><g><svg viewBox="0 0 395.52 123.43807877384185" height="123.43807877384185" width="395.52"><g id="textblocktransform"><svg viewBox="0 0 395.52 123.43807877384185" height="123.43807877384185" width="395.52" id="textblock"><g><svg viewBox="0 0 395.52 92.33756800169365" height="92.33756800169365" width="395.52"><rect width="395.52" height="92.33756800169365" x="0" y="0" opacity="1" fill="#ffffff" data-fill-palette-color="tertiary"></rect><g transform="matrix(1,0,0,1,23.461705032,23.461705031999998)"><svg width="348.596589936" viewBox="2.05 -36.45999999577501 287.51090908874505 37.45999999577501" height="45.41415793769366" data-palette-color="#444444"><path d="M12.95 0.6L12.95 0.6Q7.8 0.6 4.93-2.68 2.05-5.95 2.05-11.35L2.05-11.35Q2.2-14.8 3.78-17.45 5.35-20.1 7.98-21.63 10.6-23.15 13.8-23.25L13.8-23.25Q15.55-23.25 17.38-22.83 19.2-22.4 20.43-21.28 21.65-20.15 21.65-18.05L21.65-18.05Q21.65-16.6 20.75-15.38 19.85-14.15 18.25-14.15L18.25-14.15Q17.15-14.15 16.55-14.7 15.95-15.25 15.95-15.5L15.95-15.5Q15.95-15.6 16.38-15.93 16.8-16.25 17.2-16.82 17.6-17.4 17.6-18.25L17.6-18.25Q17.6-19.85 16.45-20.6 15.3-21.35 13.85-21.4L13.85-21.4Q11.65-21.4 10.33-20.5 9-19.6 8.3-18.13 7.6-16.65 7.38-14.9 7.15-13.15 7.15-11.5L7.15-11.5Q7.15-8.75 8-6.58 8.85-4.4 10.4-3.15 11.95-1.9 14.1-1.9L14.1-1.9Q16.3-1.9 17.8-2.85 19.3-3.8 20.55-5.65L20.55-5.65Q20.9-6.15 21.6-5.75L21.6-5.75Q21.95-5.55 22.1-5.2 22.25-4.85 22-4.5L22-4.5Q20.35-2.15 17.9-0.78 15.45 0.6 12.95 0.6ZM24.4 0.15L24.4 0.15Q24.05 0.15 23.82-0.18 23.6-0.5 23.6-0.85L23.6-0.85Q23.65-1.6 23.97-1.68 24.3-1.75 24.75-1.75L24.75-1.75Q26.15-1.75 26.67-2.23 27.2-2.7 27.27-3.5 27.35-4.3 27.35-5.15L27.35-5.15 27.35-29.55Q27.35-30.45 27.27-31.23 27.2-32 26.7-32.48 26.2-32.95 24.8-32.95L24.8-32.95Q24.35-32.95 23.97-33.08 23.6-33.2 23.6-33.95L23.6-33.95Q23.6-34.7 24.4-34.85L24.4-34.85Q26.7-35.2 27.92-35.55 29.15-35.9 29.8-36.15 30.45-36.4 30.95-36.45L30.95-36.45Q31.35-36.5 31.62-36.3 31.9-36.1 31.9-35.5L31.9-35.5 31.9-5.15Q31.9-4.3 31.97-3.5 32.05-2.7 32.57-2.23 33.1-1.75 34.5-1.75L34.5-1.75Q34.95-1.75 35.27-1.68 35.6-1.6 35.65-0.85L35.65-0.85Q35.65-0.5 35.45-0.18 35.25 0.15 34.85 0.15L34.85 0.15Q33.4 0.05 32.17 0.03 30.95 0 29.6 0L29.6 0Q28.25 0 27.05 0.03 25.85 0.05 24.4 0.15ZM45.15 0.6L45.15 0.6Q42.1 0.6 40.27-1.15 38.45-2.9 38.45-5.35L38.45-5.35Q38.45-7.9 39.77-9.35 41.1-10.8 43.27-11.5 45.45-12.2 48.02-12.45 50.6-12.7 53.05-12.85L53.05-12.85 53.05-16.8Q53.05-19.15 51.87-20.48 50.7-21.8 47.9-21.8L47.9-21.8Q46.5-21.8 45.27-20.9 44.05-20 44.05-18.3L44.05-18.3Q44.05-17.5 44.45-16.95 44.85-16.4 45.25-16.1 45.65-15.8 45.65-15.7L45.65-15.7Q45.65-15.5 45.07-14.98 44.5-14.45 43.5-14.45L43.5-14.45Q41.95-14.45 41.1-15.6 40.25-16.75 40.25-18.15L40.25-18.15Q40.25-20.05 41.42-21.15 42.6-22.25 44.45-22.75 46.3-23.25 48.2-23.25L48.2-23.25Q50.45-23.25 52.57-22.7 54.7-22.15 56.07-20.6 57.45-19.05 57.45-15.95L57.45-15.95 57.45-4.3Q57.5-3.8 57.7-3.1 57.9-2.4 58.47-1.88 59.05-1.35 60.05-1.35L60.05-1.35Q60.4-1.35 60.6-1.23 60.8-1.1 60.8-0.55L60.8-0.55Q60.8-0.1 60.3 0.15 59.8 0.4 59.15 0.5 58.5 0.6 58.05 0.6L58.05 0.6Q56.2 0.6 54.75-0.48 53.3-1.55 53.05-3.45L53.05-3.45Q51.95-1.45 49.77-0.43 47.6 0.6 45.15 0.6ZM46.75-2.1L46.75-2.1Q48.45-2.1 49.87-2.95 51.3-3.8 52.17-5.28 53.05-6.75 53.05-8.55L53.05-8.55 53.05-11.4Q47.9-11.05 45.7-9.75 43.5-8.45 43.5-5.5L43.5-5.5Q43.5-2.1 46.75-2.1ZM72.69 0.6L72.69 0.6Q68.84 0.6 66.27-0.78 63.69-2.15 63.69-4.75L63.69-4.75Q63.69-6.2 64.57-7.1 65.44-8 66.84-8L66.84-8Q67.74-8 68.32-7.53 68.89-7.05 68.89-6.85L68.89-6.85Q68.89-6.7 68.32-6.18 67.74-5.65 67.74-4.5L67.74-4.5Q67.74-3.1 69.07-2.18 70.39-1.25 73.09-1.25L73.09-1.25Q75.44-1.25 76.77-2.27 78.09-3.3 78.09-5.15L78.09-5.15Q78.09-6.65 77.12-7.48 76.14-8.3 74.62-8.8 73.09-9.3 71.37-9.8 69.64-10.3 68.09-11.05 66.54-11.8 65.57-13.13 64.59-14.45 64.59-16.65L64.59-16.65Q64.59-18.9 65.94-20.35 67.29-21.8 69.39-22.53 71.49-23.25 73.64-23.25L73.64-23.25Q75.49-23.25 77.14-22.73 78.79-22.2 79.87-21.15 80.94-20.1 80.94-18.5L80.94-18.5Q80.94-17.25 80.14-16.25 79.34-15.25 77.94-15.25L77.94-15.25Q77.04-15.25 76.47-15.73 75.89-16.2 75.89-16.4L75.89-16.4Q75.89-16.5 76.27-16.78 76.64-17.05 76.99-17.53 77.34-18 77.34-18.75L77.34-18.75Q77.24-20.2 75.94-20.9 74.64-21.6 73.04-21.6L73.04-21.6Q71.29-21.6 69.79-20.75 68.29-19.9 68.29-18.3L68.29-18.3Q68.29-16.85 68.92-16.05 69.54-15.25 70.92-14.68 72.29-14.1 74.49-13.4L74.49-13.4Q76.69-12.7 78.37-11.95 80.04-11.2 80.97-9.98 81.89-8.75 81.89-6.65L81.89-6.65Q81.89-4.55 80.69-2.9 79.49-1.25 77.42-0.33 75.34 0.6 72.69 0.6ZM94.84 0.6L94.84 0.6Q90.99 0.6 88.42-0.78 85.84-2.15 85.84-4.75L85.84-4.75Q85.84-6.2 86.72-7.1 87.59-8 88.99-8L88.99-8Q89.89-8 90.47-7.53 91.04-7.05 91.04-6.85L91.04-6.85Q91.04-6.7 90.47-6.18 89.89-5.65 89.89-4.5L89.89-4.5Q89.89-3.1 91.22-2.18 92.54-1.25 95.24-1.25L95.24-1.25Q97.59-1.25 98.92-2.27 100.24-3.3 100.24-5.15L100.24-5.15Q100.24-6.65 99.27-7.48 98.29-8.3 96.77-8.8 95.24-9.3 93.52-9.8 91.79-10.3 90.24-11.05 88.69-11.8 87.72-13.13 86.74-14.45 86.74-16.65L86.74-16.65Q86.74-18.9 88.09-20.35 89.44-21.8 91.54-22.53 93.64-23.25 95.79-23.25L95.79-23.25Q97.64-23.25 99.29-22.73 100.94-22.2 102.02-21.15 103.09-20.1 103.09-18.5L103.09-18.5Q103.09-17.25 102.29-16.25 101.49-15.25 100.09-15.25L100.09-15.25Q99.19-15.25 98.62-15.73 98.04-16.2 98.04-16.4L98.04-16.4Q98.04-16.5 98.42-16.78 98.79-17.05 99.14-17.53 99.49-18 99.49-18.75L99.49-18.75Q99.39-20.2 98.09-20.9 96.79-21.6 95.19-21.6L95.19-21.6Q93.44-21.6 91.94-20.75 90.44-19.9 90.44-18.3L90.44-18.3Q90.44-16.85 91.07-16.05 91.69-15.25 93.07-14.68 94.44-14.1 96.64-13.4L96.64-13.4Q98.84-12.7 100.52-11.95 102.19-11.2 103.12-9.98 104.04-8.75 104.04-6.65L104.04-6.65Q104.04-4.55 102.84-2.9 101.64-1.25 99.57-0.33 97.49 0.6 94.84 0.6ZM123.69 1L123.69 1Q119.49 1 115.99-1 112.49-3 110.36-6.7 108.24-10.4 108.24-15.55L108.24-15.55Q108.24-20.65 110.24-24.48 112.24-28.3 115.91-30.43 119.59-32.55 124.59-32.55L124.59-32.55Q126.39-32.55 128.31-32.2 130.24-31.85 131.89-31.03 133.54-30.2 134.56-28.85 135.59-27.5 135.59-25.5L135.59-25.5Q135.64-23.35 134.29-21.73 132.94-20.1 130.49-20.1L130.49-20.1Q128.99-20.1 128.36-20.83 127.74-21.55 127.79-21.9L127.79-21.9Q127.79-22.05 128.41-22.43 129.04-22.8 129.66-23.58 130.29-24.35 130.29-25.65L130.29-25.65Q130.29-27.9 128.79-29.23 127.29-30.55 124.54-30.55L124.54-30.55Q121.54-30.55 119.16-28.85 116.79-27.15 115.44-23.88 114.09-20.6 114.09-15.85L114.09-15.85Q114.09-11.85 115.51-8.58 116.94-5.3 119.51-3.38 122.09-1.45 125.49-1.45L125.49-1.45Q128.19-1.45 130.11-2.58 132.04-3.7 133.59-6.2L133.59-6.2Q134.04-7.05 135.19-6.35L135.19-6.35Q135.64-6.05 135.89-5.63 136.14-5.2 135.79-4.75L135.79-4.75Q133.89-2.35 132.19-1.13 130.49 0.1 128.49 0.55 126.49 1 123.69 1ZM151.03 0.6L151.03 0.6Q147.53 0.6 144.91-1.05 142.28-2.7 140.84-5.35 139.39-8 139.39-11L139.39-11Q139.39-13.95 140.44-16.25 141.49-18.55 143.21-20.1 144.94-21.65 146.99-22.45 149.03-23.25 151.03-23.25L151.03-23.25Q154.53-23.25 157.16-21.6 159.79-19.95 161.24-17.3 162.69-14.65 162.69-11.65L162.69-11.65Q162.69-8.7 161.61-6.4 160.54-4.1 158.81-2.55 157.09-1 155.03-0.2 152.99 0.6 151.03 0.6ZM151.03-1.25L151.03-1.25Q153.49-1.25 154.91-2.7 156.34-4.15 156.96-6.53 157.59-8.9 157.59-11.65L157.59-11.65Q157.59-14.3 156.94-16.5 156.28-18.7 154.84-20.05 153.39-21.4 151.03-21.4L151.03-21.4Q148.59-21.4 147.14-19.98 145.69-18.55 145.09-16.23 144.49-13.9 144.49-11.1L144.49-11.1Q144.49-8.5 145.11-6.25 145.74-4 147.19-2.63 148.64-1.25 151.03-1.25ZM166.88 0.15L166.88 0.15Q166.53 0.15 166.31-0.18 166.08-0.5 166.08-0.85L166.08-0.85Q166.18-1.6 166.48-1.68 166.78-1.75 167.28-1.75L167.28-1.75Q168.68-1.75 169.18-2.23 169.68-2.7 169.76-3.5 169.83-4.3 169.83-5.15L169.83-5.15 169.83-16.6Q169.83-17.5 169.76-18.28 169.68-19.05 169.18-19.53 168.68-20 167.28-20L167.28-20Q166.83-20 166.46-20.13 166.08-20.25 166.08-21L166.08-21Q166.08-21.75 166.88-21.9L166.88-21.9Q169.18-22.25 170.41-22.6 171.63-22.95 172.26-23.2 172.88-23.45 173.38-23.5L173.38-23.5Q173.78-23.55 174.06-23.35 174.33-23.15 174.33-22.55L174.33-22.55 174.33-19.4 174.48-19.4Q175.48-20.35 176.53-21.23 177.58-22.1 179.01-22.68 180.43-23.25 182.53-23.25L182.53-23.25Q185.93-23.25 187.93-21.2 189.93-19.15 189.93-15.8L189.93-15.8 189.93-5.15Q189.93-4.3 190.01-3.5 190.08-2.7 190.61-2.23 191.13-1.75 192.53-1.75L192.53-1.75Q192.98-1.75 193.31-1.68 193.63-1.6 193.68-0.85L193.68-0.85Q193.68-0.5 193.48-0.18 193.28 0.15 192.88 0.15L192.88 0.15Q191.43 0.05 190.21 0.03 188.98 0 187.63 0L187.63 0Q186.28 0 185.08 0.03 183.88 0.05 182.43 0.15L182.43 0.15Q182.08 0.15 181.86-0.18 181.63-0.5 181.63-0.85L181.63-0.85Q181.68-1.6 182.01-1.68 182.33-1.75 182.78-1.75L182.78-1.75Q184.18-1.75 184.71-2.23 185.23-2.7 185.31-3.5 185.38-4.3 185.38-5.15L185.38-5.15 185.38-15.75Q185.38-17.4 184.66-18.45 183.93-19.5 182.83-20 181.73-20.5 180.58-20.5L180.58-20.5Q178.88-20.5 177.58-19.88 176.28-19.25 175.48-18.45 174.68-17.65 174.38-17.05L174.38-17.05 174.38-5.15Q174.38-4.3 174.46-3.5 174.53-2.7 175.06-2.23 175.58-1.75 176.98-1.75L176.98-1.75Q177.43-1.75 177.76-1.68 178.08-1.6 178.13-0.85L178.13-0.85Q178.13-0.5 177.93-0.18 177.73 0.15 177.33 0.15L177.33 0.15Q175.88 0.05 174.66 0.03 173.43 0 172.08 0L172.08 0Q170.73 0 169.53 0.03 168.33 0.05 166.88 0.15ZM196.58 0.15L196.58 0.15Q196.23 0.15 196-0.18 195.78-0.5 195.78-0.85L195.78-0.85Q195.88-1.6 196.18-1.68 196.48-1.75 196.98-1.75L196.98-1.75Q198.38-1.75 198.88-2.23 199.38-2.7 199.45-3.5 199.53-4.3 199.53-5.15L199.53-5.15 199.53-16.6Q199.53-17.5 199.45-18.28 199.38-19.05 198.88-19.53 198.38-20 196.98-20L196.98-20Q196.53-20 196.16-20.13 195.78-20.25 195.78-21L195.78-21Q195.78-21.75 196.58-21.9L196.58-21.9Q198.88-22.25 200.1-22.6 201.33-22.95 201.95-23.2 202.58-23.45 203.08-23.5L203.08-23.5Q203.48-23.55 203.75-23.35 204.03-23.15 204.03-22.55L204.03-22.55 204.03-19.4 204.18-19.4Q205.18-20.35 206.23-21.23 207.28-22.1 208.7-22.68 210.13-23.25 212.23-23.25L212.23-23.25Q215.63-23.25 217.63-21.2 219.63-19.15 219.63-15.8L219.63-15.8 219.63-5.15Q219.63-4.3 219.7-3.5 219.78-2.7 220.31-2.23 220.83-1.75 222.23-1.75L222.23-1.75Q222.68-1.75 223-1.68 223.33-1.6 223.38-0.85L223.38-0.85Q223.38-0.5 223.18-0.18 222.98 0.15 222.58 0.15L222.58 0.15Q221.13 0.05 219.91 0.03 218.68 0 217.33 0L217.33 0Q215.98 0 214.78 0.03 213.58 0.05 212.13 0.15L212.13 0.15Q211.78 0.15 211.56-0.18 211.33-0.5 211.33-0.85L211.33-0.85Q211.38-1.6 211.7-1.68 212.03-1.75 212.48-1.75L212.48-1.75Q213.88-1.75 214.41-2.23 214.93-2.7 215-3.5 215.08-4.3 215.08-5.15L215.08-5.15 215.08-15.75Q215.08-17.4 214.35-18.45 213.63-19.5 212.53-20 211.43-20.5 210.28-20.5L210.28-20.5Q208.58-20.5 207.28-19.88 205.98-19.25 205.18-18.45 204.38-17.65 204.08-17.05L204.08-17.05 204.08-5.15Q204.08-4.3 204.16-3.5 204.23-2.7 204.75-2.23 205.28-1.75 206.68-1.75L206.68-1.75Q207.13-1.75 207.45-1.68 207.78-1.6 207.83-0.85L207.83-0.85Q207.83-0.5 207.63-0.18 207.43 0.15 207.03 0.15L207.03 0.15Q205.58 0.05 204.35 0.03 203.13 0 201.78 0L201.78 0Q200.43 0 199.23 0.03 198.03 0.05 196.58 0.15ZM237.63 0.6L237.63 0.6Q233.78 0.6 231.15-1.05 228.53-2.7 227.23-5.45 225.93-8.2 225.93-11.45L225.93-11.45Q225.93-13.65 226.7-15.73 227.48-17.8 228.93-19.53 230.38-21.25 232.43-22.25 234.48-23.25 237.08-23.25L237.08-23.25Q241.68-23.25 244-20.88 246.33-18.5 246.68-14.85L246.68-14.85Q246.68-13.1 245.7-12.55 244.73-12 243.18-12L243.18-12 231.03-12Q231.03-9.1 231.83-6.83 232.63-4.55 234.35-3.23 236.08-1.9 238.93-1.9L238.93-1.9Q241.03-1.9 242.53-2.8 244.03-3.7 245.43-5.95L245.43-5.95Q245.83-6.45 246.53-6L246.53-6Q246.93-5.8 247.03-5.38 247.13-4.95 246.93-4.65L246.93-4.65Q245.38-2.2 243.03-0.8 240.68 0.6 237.63 0.6ZM231.03-13.9L231.03-13.9 239.18-13.9Q240.38-13.9 241.1-14.38 241.83-14.85 241.88-16L241.88-16Q241.88-18.15 240.7-19.83 239.53-21.5 237.08-21.5L237.08-21.5Q234.58-21.5 232.9-19.5 231.23-17.5 231.03-13.9ZM261.93 0.6L261.93 0.6Q256.77 0.6 253.9-2.68 251.03-5.95 251.03-11.35L251.03-11.35Q251.17-14.8 252.75-17.45 254.32-20.1 256.95-21.63 259.57-23.15 262.77-23.25L262.77-23.25Q264.52-23.25 266.35-22.83 268.18-22.4 269.4-21.28 270.63-20.15 270.63-18.05L270.63-18.05Q270.63-16.6 269.73-15.38 268.82-14.15 267.23-14.15L267.23-14.15Q266.13-14.15 265.52-14.7 264.93-15.25 264.93-15.5L264.93-15.5Q264.93-15.6 265.35-15.93 265.77-16.25 266.18-16.82 266.57-17.4 266.57-18.25L266.57-18.25Q266.57-19.85 265.43-20.6 264.27-21.35 262.82-21.4L262.82-21.4Q260.63-21.4 259.3-20.5 257.98-19.6 257.27-18.13 256.57-16.65 256.35-14.9 256.13-13.15 256.13-11.5L256.13-11.5Q256.13-8.75 256.98-6.58 257.82-4.4 259.38-3.15 260.93-1.9 263.07-1.9L263.07-1.9Q265.27-1.9 266.77-2.85 268.27-3.8 269.52-5.65L269.52-5.65Q269.88-6.15 270.57-5.75L270.57-5.75Q270.93-5.55 271.07-5.2 271.23-4.85 270.98-4.5L270.98-4.5Q269.32-2.15 266.88-0.78 264.43 0.6 261.93 0.6ZM283.52 0.85L283.52 0.85Q282.02 0.85 280.67 0.1 279.32-0.65 278.45-2.2 277.57-3.75 277.57-6.1L277.57-6.1 277.57-20.8 274.67-20.7Q274.32-20.7 274.15-20.98 273.97-21.25 273.97-21.6L273.97-21.6Q273.97-22.6 274.67-22.75L274.67-22.75Q276.52-23.1 277.47-23.93 278.42-24.75 278.95-25.9 279.47-27.05 279.92-28.4L279.92-28.4Q280.07-28.8 280.37-28.93 280.67-29.05 281.02-29.05L281.02-29.05Q281.32-29.05 281.7-28.9 282.07-28.75 282.07-28.35L282.07-28.35 281.72-22.65 287.57-23Q288.02-23.05 288.17-22.75 288.32-22.45 288.32-22.05L288.32-22.05Q288.32-21.55 288.15-21.05 287.97-20.55 287.72-20.55L287.72-20.55 282.12-20.7 282.12-5.5Q282.12-4.05 282.75-2.85 283.37-1.65 285.02-1.65L285.02-1.65Q285.57-1.65 286.27-1.75 286.97-1.85 287.77-2.2L287.77-2.2Q287.97-2.3 288.17-2.38 288.37-2.45 288.57-2.45L288.57-2.45Q288.97-2.45 289.17-2.13 289.37-1.8 289.52-1.45L289.52-1.45Q289.67-1 289.27-0.75L289.27-0.75Q287.72 0.25 286.42 0.55 285.12 0.85 283.52 0.85Z" opacity="1" transform="matrix(1,0,0,1,0,0)" fill="#444444" class="wordmark-text-0" data-fill-palette-color="quaternary" id="text-0"></path></svg></g></svg></g><g transform="matrix(1,0,0,1,0,104.06842051769365)"><svg viewBox="0 0 395.52 19.369658256148192" height="19.369658256148192" width="395.52"><g transform="matrix(1,0,0,1,0,0)"><svg width="395.52" viewBox="2.1499999999999995 -36 939.2 46" height="19.369658256148192" data-palette-color="#00d1cd"><path d="M2.15-17.5L2.15-17.5Q2.15-21.45 3.45-24.73 4.75-28 7.13-30.38 9.5-32.75 12.63-34.05 15.75-35.35 19.45-35.35L19.45-35.35Q24.85-35.35 28.93-32.85 33-30.35 35.1-25.75L35.1-25.75 31.85-24.55Q30.7-27 28.8-28.58 26.9-30.15 24.5-30.95 22.1-31.75 19.45-31.75L19.45-31.75Q15.7-31.75 12.7-30.05 9.7-28.35 7.98-25.15 6.25-21.95 6.25-17.5L6.25-17.5Q6.25-13.1 7.98-9.9 9.7-6.7 12.7-4.98 15.7-3.25 19.45-3.25L19.45-3.25Q22.15-3.25 24.6-4.1 27.05-4.95 29.03-6.75 31-8.55 32.2-11.25L32.2-11.25 35.45-10.05Q33.3-4.9 29.15-2.27 25 0.35 19.45 0.35L19.45 0.35Q15.75 0.35 12.63-0.95 9.5-2.25 7.13-4.65 4.75-7.05 3.45-10.33 2.15-13.6 2.15-17.5ZM52.9 0.35L52.9 0.35Q49.35 0.35 46.55-1.2 43.75-2.75 42.15-5.63 40.55-8.5 40.55-12.45L40.55-12.45Q40.55-16.45 42.17-19.35 43.8-22.25 46.62-23.8 49.45-25.35 53-25.35L53-25.35Q56.55-25.35 59.37-23.8 62.2-22.25 63.82-19.38 65.45-16.5 65.45-12.55L65.45-12.55Q65.45-8.55 63.8-5.65 62.15-2.75 59.3-1.2 56.45 0.35 52.9 0.35ZM52.85-3.2L52.85-3.2Q55.05-3.2 57-4.17 58.95-5.15 60.17-7.23 61.4-9.3 61.4-12.5L61.4-12.5Q61.4-15.75 60.2-17.8 59-19.85 57.07-20.83 55.15-21.8 52.95-21.8L52.95-21.8Q50.75-21.8 48.85-20.83 46.95-19.85 45.77-17.78 44.6-15.7 44.6-12.5L44.6-12.5Q44.6-9.25 45.75-7.2 46.9-5.15 48.77-4.17 50.65-3.2 52.85-3.2ZM71.59 0L71.59-25 75.05-25 75.25-21.45Q76.45-23.3 78.4-24.33 80.34-25.35 82.95-25.35L82.95-25.35Q85.8-25.35 87.95-24.13 90.09-22.9 91.3-20.48 92.5-18.05 92.5-14.4L92.5-14.4 92.5 0 88.75 0 88.75-13.95Q88.75-17.85 87.07-19.88 85.4-21.9 82.25-21.9L82.25-21.9Q79-21.9 77.17-19.75 75.34-17.6 75.34-13.4L75.34-13.4 75.34 0 71.59 0ZM99.74 0L99.74-25 103.19-25 103.39-21.45Q104.59-23.3 106.54-24.33 108.49-25.35 111.09-25.35L111.09-25.35Q113.94-25.35 116.09-24.13 118.24-22.9 119.44-20.48 120.64-18.05 120.64-14.4L120.64-14.4 120.64 0 116.89 0 116.89-13.95Q116.89-17.85 115.22-19.88 113.54-21.9 110.39-21.9L110.39-21.9Q107.14-21.9 105.32-19.75 103.49-17.6 103.49-13.4L103.49-13.4 103.49 0 99.74 0ZM138.39 0.35L138.39 0.35Q134.89 0.35 132.17-1.35 129.44-3.05 127.89-6 126.34-8.95 126.34-12.75L126.34-12.75Q126.34-16.4 127.89-19.25 129.44-22.1 132.14-23.73 134.84-25.35 138.29-25.35L138.29-25.35Q141.69-25.35 144.37-23.85 147.04-22.35 148.54-19.7 150.04-17.05 149.94-13.65L149.94-13.65Q149.94-13.1 149.89-12.5 149.84-11.9 149.79-11.2L149.79-11.2 130.44-11.2Q130.54-8.85 131.59-7.05 132.64-5.25 134.37-4.23 136.09-3.2 138.29-3.2L138.29-3.2Q141.19-3.2 143.22-4.3 145.24-5.4 146.14-7.45L146.14-7.45 149.39-6.15Q147.89-3 145.04-1.33 142.19 0.35 138.39 0.35ZM130.49-14.45L145.84-14.45Q145.89-16.6 144.92-18.25 143.94-19.9 142.19-20.85 140.44-21.8 138.14-21.8L138.14-21.8Q136.14-21.8 134.49-20.85 132.84-19.9 131.77-18.23 130.69-16.55 130.49-14.45L130.49-14.45ZM166.74 0.35L166.74 0.35Q163.09 0.35 160.34-1.25 157.59-2.85 156.06-5.73 154.54-8.6 154.54-12.4L154.54-12.4Q154.54-16.25 156.06-19.18 157.59-22.1 160.34-23.73 163.09-25.35 166.74-25.35L166.74-25.35Q170.59-25.35 173.49-23.58 176.39-21.8 177.69-18.65L177.69-18.65 174.24-17.45Q173.49-19.45 171.51-20.63 169.54-21.8 166.94-21.8L166.94-21.8Q164.39-21.8 162.51-20.65 160.64-19.5 159.61-17.4 158.59-15.3 158.59-12.45L158.59-12.45Q158.59-8.25 160.84-5.73 163.09-3.2 166.84-3.2L166.84-3.2Q169.39-3.2 171.39-4.35 173.39-5.5 174.34-7.45L174.34-7.45 177.74-6.25Q176.39-3.15 173.49-1.4 170.59 0.35 166.74 0.35ZM180.74-25L184.49-25 184.49-32 188.24-32 188.24-25 194.89-25 194.89-21.5 188.24-21.5 188.24-8.05Q188.24-5.75 189.21-4.7 190.19-3.65 191.71-3.45 193.24-3.25 194.89-3.45L194.89-3.45 194.89-0.2Q192.94 0.25 191.06 0.05 189.19-0.15 187.71-1.07 186.24-2 185.36-3.7 184.49-5.4 184.49-8.05L184.49-8.05 184.49-21.5 180.74-21.5 180.74-25ZM229.53-19.4L223.18 0 219.78 0 211.93-25 215.73-25 221.48-4.65 227.93-25 231.33-25 237.68-4.7 243.38-25 247.08-25 239.28 0 235.83 0 229.53-19.4ZM252.93 0L252.93-25 256.63-25 256.63 0 252.93 0ZM254.83-30L254.83-30Q253.68-30 252.93-30.75 252.18-31.5 252.18-32.6L252.18-32.6Q252.18-33.75 252.93-34.5 253.68-35.25 254.83-35.25L254.83-35.25Q255.88-35.25 256.65-34.5 257.43-33.75 257.43-32.6L257.43-32.6Q257.43-31.5 256.65-30.75 255.88-30 254.83-30ZM262.93-25L266.68-25 266.68-32 270.43-32 270.43-25 277.08-25 277.08-21.5 270.43-21.5 270.43-8.05Q270.43-5.75 271.4-4.7 272.38-3.65 273.9-3.45 275.43-3.25 277.08-3.45L277.08-3.45 277.08-0.2Q275.13 0.25 273.25 0.05 271.38-0.15 269.9-1.07 268.43-2 267.55-3.7 266.68-5.4 266.68-8.05L266.68-8.05 266.68-21.5 262.93-21.5 262.93-25ZM282.67 0L282.67-36 286.42-36 286.42-21.6Q287.62-23.4 289.67-24.38 291.72-25.35 294.27-25.35L294.27-25.35Q297.02-25.35 299.17-24.1 301.32-22.85 302.55-20.4 303.77-17.95 303.77-14.3L303.77-14.3 303.77 0 299.77 0 299.77-13.85Q299.77-17.75 298.12-19.83 296.47-21.9 293.32-21.9L293.32-21.9Q290.07-21.9 288.25-19.7 286.42-17.5 286.42-13.3L286.42-13.3 286.42 0 282.67 0ZM323.47-6.45L327.07-7.65Q327.37-6.15 328.17-5.18 328.97-4.2 330.24-3.7 331.52-3.2 333.22-3.2L333.22-3.2Q335.87-3.2 337.24-4.23 338.62-5.25 338.62-6.8L338.62-6.8Q338.62-8.1 337.79-8.9 336.97-9.7 335.62-10.23 334.27-10.75 332.62-11.15L332.62-11.15Q331.32-11.45 329.82-11.88 328.32-12.3 326.97-13.05 325.62-13.8 324.77-15 323.92-16.2 323.92-18.15L323.92-18.15Q323.92-20.3 325.09-21.93 326.27-23.55 328.34-24.45 330.42-25.35 333.12-25.35L333.12-25.35Q336.22-25.35 338.64-24 341.07-22.65 342.02-19.8L342.02-19.8 338.52-18.6Q338.17-19.9 337.24-20.6 336.32-21.3 335.19-21.55 334.07-21.8 332.97-21.8L332.97-21.8Q330.72-21.8 329.34-20.93 327.97-20.05 327.97-18.3L327.97-18.3Q327.97-17.35 328.42-16.73 328.87-16.1 329.67-15.7 330.47-15.3 331.57-15.03 332.67-14.75 333.97-14.4L333.97-14.4Q335.42-14.05 336.92-13.53 338.42-13 339.72-12.18 341.02-11.35 341.84-10.08 342.67-8.8 342.67-6.9L342.67-6.9Q342.67-4.7 341.47-3.08 340.27-1.45 338.14-0.55 336.02 0.35 333.22 0.35L333.22 0.35Q329.37 0.35 326.84-1.38 324.32-3.1 323.47-6.45L323.47-6.45ZM346.62-25L350.37-25 350.37-32 354.12-32 354.12-25 360.77-25 360.77-21.5 354.12-21.5 354.12-8.05Q354.12-5.75 355.09-4.7 356.07-3.65 357.59-3.45 359.12-3.25 360.77-3.45L360.77-3.45 360.77-0.2Q358.82 0.25 356.94 0.05 355.07-0.15 353.59-1.07 352.12-2 351.24-3.7 350.37-5.4 350.37-8.05L350.37-8.05 350.37-21.5 346.62-21.5 346.62-25ZM386.81-25L386.81 0 383.41 0 383.16-3.6Q382.01-1.7 380.06-0.68 378.11 0.35 375.51 0.35L375.51 0.35Q372.61 0.35 370.46-0.85 368.31-2.05 367.14-4.45 365.96-6.85 365.96-10.5L365.96-10.5 365.96-25 369.66-25 369.66-10.9Q369.66-7.05 371.34-5.08 373.01-3.1 376.16-3.1L376.16-3.1Q379.36-3.1 381.24-5.18 383.11-7.25 383.11-11.45L383.11-11.45 383.11-25 386.81-25ZM413.76-19.95L413.76-19.95 413.36-19.9 413.36-36 417.11-36 417.11 0 413.66 0 413.41-4.65Q412.26-2.55 409.99-1.1 407.71 0.35 404.36 0.35L404.36 0.35Q400.91 0.35 398.34-1.23 395.76-2.8 394.34-5.7 392.91-8.6 392.91-12.5L392.91-12.5Q392.91-16.4 394.34-19.28 395.76-22.15 398.34-23.75 400.91-25.35 404.36-25.35L404.36-25.35Q407.91-25.35 410.26-23.8 412.61-22.25 413.76-19.95ZM396.96-12.5L396.96-12.5Q396.96-8.2 399.16-5.68 401.36-3.15 405.16-3.15L405.16-3.15Q407.51-3.15 409.36-4.25 411.21-5.35 412.29-7.45 413.36-9.55 413.36-12.5L413.36-12.5Q413.36-15.45 412.29-17.53 411.21-19.6 409.36-20.73 407.51-21.85 405.16-21.85L405.16-21.85Q401.41-21.85 399.19-19.33 396.96-16.8 396.96-12.5ZM433.96-4.8L441.71-25 445.61-25 431.31 10 427.71 10 431.96-0.35 421.86-25 425.96-25 433.96-4.8ZM475.05 0.35L475.05 0.35Q471.4 0.35 468.65-1.25 465.9-2.85 464.38-5.73 462.85-8.6 462.85-12.4L462.85-12.4Q462.85-16.25 464.38-19.18 465.9-22.1 468.65-23.73 471.4-25.35 475.05-25.35L475.05-25.35Q478.9-25.35 481.8-23.58 484.7-21.8 486-18.65L486-18.65 482.55-17.45Q481.8-19.45 479.83-20.63 477.85-21.8 475.25-21.8L475.25-21.8Q472.7-21.8 470.83-20.65 468.95-19.5 467.93-17.4 466.9-15.3 466.9-12.45L466.9-12.45Q466.9-8.25 469.15-5.73 471.4-3.2 475.15-3.2L475.15-3.2Q477.7-3.2 479.7-4.35 481.7-5.5 482.65-7.45L482.65-7.45 486.05-6.25Q484.7-3.15 481.8-1.4 478.9 0.35 475.05 0.35ZM503 0.35L503 0.35Q499.45 0.35 496.65-1.2 493.85-2.75 492.25-5.63 490.65-8.5 490.65-12.45L490.65-12.45Q490.65-16.45 492.28-19.35 493.9-22.25 496.73-23.8 499.55-25.35 503.1-25.35L503.1-25.35Q506.65-25.35 509.48-23.8 512.3-22.25 513.93-19.38 515.55-16.5 515.55-12.55L515.55-12.55Q515.55-8.55 513.9-5.65 512.25-2.75 509.4-1.2 506.55 0.35 503 0.35ZM502.95-3.2L502.95-3.2Q505.15-3.2 507.1-4.17 509.05-5.15 510.28-7.23 511.5-9.3 511.5-12.5L511.5-12.5Q511.5-15.75 510.3-17.8 509.1-19.85 507.18-20.83 505.25-21.8 503.05-21.8L503.05-21.8Q500.85-21.8 498.95-20.83 497.05-19.85 495.88-17.78 494.7-15.7 494.7-12.5L494.7-12.5Q494.7-9.25 495.85-7.2 497-5.15 498.88-4.17 500.75-3.2 502.95-3.2ZM521.7 0L521.7-25 525.15-25 525.4-21.4Q526.5-23.2 528.37-24.28 530.25-25.35 532.85-25.35L532.85-25.35Q535.5-25.35 537.67-24.08 539.85-22.8 541.05-20.3L541.05-20.3Q542.2-22.85 544.55-24.1 546.9-25.35 549.75-25.35L549.75-25.35Q552.55-25.35 554.7-24.13 556.85-22.9 558.05-20.48 559.25-18.05 559.25-14.4L559.25-14.4 559.25 0 555.5 0 555.5-13.95Q555.5-17.85 553.82-19.88 552.15-21.9 549.05-21.9L549.05-21.9Q545.9-21.9 544.05-19.73 542.2-17.55 542.2-13.3L542.2-13.3 542.2 0 538.45 0 538.45-13.95Q538.45-17.85 536.85-19.88 535.25-21.9 532.15-21.9L532.15-21.9Q529-21.9 527.22-19.73 525.45-17.55 525.45-13.3L525.45-13.3 525.45 0 521.7 0ZM569.85-5.05L569.85-5.05 570.25-5.1 570.25 10 566.5 10 566.5-25 569.94-25 570.19-20.35Q571.35-22.45 573.6-23.9 575.85-25.35 579.25-25.35L579.25-25.35Q582.5-25.35 585.1-23.78 587.69-22.2 589.19-19.33 590.69-16.45 590.69-12.5L590.69-12.5Q590.69-8.6 589.27-5.73 587.85-2.85 585.27-1.25 582.69 0.35 579.25 0.35L579.25 0.35Q575.64 0.35 573.29-1.2 570.94-2.75 569.85-5.05ZM586.64-12.5L586.64-12.5Q586.64-16.8 584.42-19.33 582.19-21.85 578.44-21.85L578.44-21.85Q576.1-21.85 574.22-20.75 572.35-19.65 571.29-17.55 570.25-15.45 570.25-12.5L570.25-12.5Q570.25-9.6 571.29-7.5 572.35-5.4 574.22-4.28 576.1-3.15 578.44-3.15L578.44-3.15Q582.19-3.15 584.42-5.68 586.64-8.2 586.64-12.5ZM615.89 0L612.44 0 612.14-4.5Q611.09-2.2 609.04-0.93 606.99 0.35 603.84 0.35L603.84 0.35Q601.14 0.35 599.24-0.5 597.34-1.35 596.32-2.93 595.29-4.5 595.29-6.65L595.29-6.65Q595.29-9.8 597.64-11.83 599.99-13.85 604.44-14.3L604.44-14.3 612.14-15.15 612.14-17.15Q612.14-19.25 610.59-20.53 609.04-21.8 606.39-21.8L606.39-21.8Q603.79-21.8 602.07-20.6 600.34-19.4 599.69-17.15L599.69-17.15 596.29-18.35Q597.29-21.65 599.97-23.5 602.64-25.35 606.49-25.35L606.49-25.35Q610.94-25.35 613.42-23.08 615.89-20.8 615.89-16.9L615.89-16.9 615.89 0ZM612.14-11.15L612.14-11.95 604.39-11.05Q601.89-10.75 600.59-9.68 599.29-8.6 599.29-6.85L599.29-6.85Q599.29-5.1 600.57-4.05 601.84-3 604.24-3L604.24-3Q606.99-3 608.74-4.1 610.49-5.2 611.32-7.08 612.14-8.95 612.14-11.15L612.14-11.15ZM623.19 0L623.19-25 626.64-25 626.84-21.45Q628.04-23.3 629.99-24.33 631.94-25.35 634.54-25.35L634.54-25.35Q637.39-25.35 639.54-24.13 641.69-22.9 642.89-20.48 644.09-18.05 644.09-14.4L644.09-14.4 644.09 0 640.34 0 640.34-13.95Q640.34-17.85 638.66-19.88 636.99-21.9 633.84-21.9L633.84-21.9Q630.59-21.9 628.76-19.75 626.94-17.6 626.94-13.4L626.94-13.4 626.94 0 623.19 0ZM652.09 0L652.09-25 655.79-25 655.79 0 652.09 0ZM653.99-30L653.99-30Q652.84-30 652.09-30.75 651.34-31.5 651.34-32.6L651.34-32.6Q651.34-33.75 652.09-34.5 652.84-35.25 653.99-35.25L653.99-35.25Q655.04-35.25 655.81-34.5 656.59-33.75 656.59-32.6L656.59-32.6Q656.59-31.5 655.81-30.75 655.04-30 653.99-30ZM675.03 0.35L675.03 0.35Q671.48 0.35 668.68-1.2 665.88-2.75 664.28-5.63 662.68-8.5 662.68-12.45L662.68-12.45Q662.68-16.45 664.31-19.35 665.93-22.25 668.76-23.8 671.58-25.35 675.13-25.35L675.13-25.35Q678.68-25.35 681.51-23.8 684.33-22.25 685.96-19.38 687.58-16.5 687.58-12.55L687.58-12.55Q687.58-8.55 685.93-5.65 684.28-2.75 681.43-1.2 678.58 0.35 675.03 0.35ZM674.98-3.2L674.98-3.2Q677.18-3.2 679.13-4.17 681.08-5.15 682.31-7.23 683.53-9.3 683.53-12.5L683.53-12.5Q683.53-15.75 682.33-17.8 681.13-19.85 679.21-20.83 677.28-21.8 675.08-21.8L675.08-21.8Q672.88-21.8 670.98-20.83 669.08-19.85 667.91-17.78 666.73-15.7 666.73-12.5L666.73-12.5Q666.73-9.25 667.88-7.2 669.03-5.15 670.91-4.17 672.78-3.2 674.98-3.2ZM693.73 0L693.73-25 697.18-25 697.38-21.45Q698.58-23.3 700.53-24.33 702.48-25.35 705.08-25.35L705.08-25.35Q707.93-25.35 710.08-24.13 712.23-22.9 713.43-20.48 714.63-18.05 714.63-14.4L714.63-14.4 714.63 0 710.88 0 710.88-13.95Q710.88-17.85 709.21-19.88 707.53-21.9 704.38-21.9L704.38-21.9Q701.13-21.9 699.31-19.75 697.48-17.6 697.48-13.4L697.48-13.4 697.48 0 693.73 0ZM720.33-6.45L723.93-7.65Q724.23-6.15 725.03-5.18 725.83-4.2 727.1-3.7 728.38-3.2 730.08-3.2L730.08-3.2Q732.73-3.2 734.1-4.23 735.48-5.25 735.48-6.8L735.48-6.8Q735.48-8.1 734.65-8.9 733.83-9.7 732.48-10.23 731.13-10.75 729.48-11.15L729.48-11.15Q728.18-11.45 726.68-11.88 725.18-12.3 723.83-13.05 722.48-13.8 721.63-15 720.78-16.2 720.78-18.15L720.78-18.15Q720.78-20.3 721.95-21.93 723.13-23.55 725.2-24.45 727.28-25.35 729.98-25.35L729.98-25.35Q733.08-25.35 735.5-24 737.93-22.65 738.88-19.8L738.88-19.8 735.38-18.6Q735.03-19.9 734.1-20.6 733.18-21.3 732.05-21.55 730.93-21.8 729.83-21.8L729.83-21.8Q727.58-21.8 726.2-20.93 724.83-20.05 724.83-18.3L724.83-18.3Q724.83-17.35 725.28-16.73 725.73-16.1 726.53-15.7 727.33-15.3 728.43-15.03 729.53-14.75 730.83-14.4L730.83-14.4Q732.28-14.05 733.78-13.53 735.28-13 736.58-12.18 737.88-11.35 738.7-10.08 739.53-8.8 739.53-6.9L739.53-6.9Q739.53-4.7 738.33-3.08 737.13-1.45 735-0.55 732.88 0.35 730.08 0.35L730.08 0.35Q726.23 0.35 723.7-1.38 721.18-3.1 720.33-6.45L720.33-6.45ZM778.57-20.35L778.82-25 782.27-25 782.27-4.6Q782.27 0 780.22 3.28 778.17 6.55 774.27 8.28 770.37 10 764.77 10L764.77 10 764.17 6.55Q771.22 6.45 774.87 3.63 778.52 0.8 778.52-4.6L778.52-4.6 778.52-5.15 778.92-5.05Q777.77-2.85 775.47-1.28 773.17 0.3 769.52 0.35L769.52 0.35Q766.07 0.35 763.5-1.23 760.92-2.8 759.5-5.7 758.07-8.6 758.07-12.5L758.07-12.5Q758.07-16.4 759.5-19.28 760.92-22.15 763.5-23.75 766.07-25.35 769.52-25.35L769.52-25.35Q771.77-25.35 773.52-24.68 775.27-24 776.52-22.88 777.77-21.75 778.57-20.35L778.57-20.35ZM762.12-12.5L762.12-12.5Q762.12-8.2 764.35-5.68 766.57-3.15 770.37-3.15L770.37-3.15Q772.67-3.15 774.52-4.25 776.37-5.35 777.45-7.45 778.52-9.55 778.52-12.5L778.52-12.5Q778.52-15.45 777.45-17.53 776.37-19.6 774.52-20.73 772.67-21.85 770.37-21.85L770.37-21.85Q766.62-21.85 764.37-19.3 762.12-16.75 762.12-12.5ZM789.92 0L789.92-36 793.67-36 793.67 0 789.92 0ZM812.12 0.35L812.12 0.35Q808.57 0.35 805.77-1.2 802.97-2.75 801.37-5.63 799.77-8.5 799.77-12.45L799.77-12.45Q799.77-16.45 801.39-19.35 803.02-22.25 805.84-23.8 808.67-25.35 812.22-25.35L812.22-25.35Q815.77-25.35 818.59-23.8 821.42-22.25 823.04-19.38 824.67-16.5 824.67-12.55L824.67-12.55Q824.67-8.55 823.02-5.65 821.37-2.75 818.52-1.2 815.67 0.35 812.12 0.35ZM812.07-3.2L812.07-3.2Q814.27-3.2 816.22-4.17 818.17-5.15 819.39-7.23 820.62-9.3 820.62-12.5L820.62-12.5Q820.62-15.75 819.42-17.8 818.22-19.85 816.29-20.83 814.37-21.8 812.17-21.8L812.17-21.8Q809.97-21.8 808.07-20.83 806.17-19.85 804.99-17.78 803.82-15.7 803.82-12.5L803.82-12.5Q803.82-9.25 804.97-7.2 806.12-5.15 807.99-4.17 809.87-3.2 812.07-3.2ZM834.57-19.9L834.17-19.95Q835.27-22.25 837.62-23.8 839.97-25.35 843.57-25.35L843.57-25.35Q847.02-25.35 849.59-23.75 852.17-22.15 853.59-19.28 855.02-16.4 855.02-12.5L855.02-12.5Q855.02-8.6 853.57-5.7 852.12-2.8 849.54-1.23 846.97 0.35 843.57 0.35L843.57 0.35Q840.17 0.35 837.92-1.1 835.67-2.55 834.52-4.65L834.52-4.65 834.27 0 830.82 0 830.82-36 834.57-36 834.57-19.9ZM850.97-12.5L850.97-12.5Q850.97-16.8 848.74-19.33 846.52-21.85 842.77-21.85L842.77-21.85Q840.42-21.85 838.54-20.73 836.67-19.6 835.62-17.53 834.57-15.45 834.57-12.5L834.57-12.5Q834.57-9.55 835.62-7.45 836.67-5.35 838.54-4.25 840.42-3.15 842.77-3.15L842.77-3.15Q846.52-3.15 848.74-5.68 850.97-8.2 850.97-12.5ZM880.21 0L876.76 0 876.46-4.5Q875.41-2.2 873.36-0.93 871.31 0.35 868.16 0.35L868.16 0.35Q865.46 0.35 863.56-0.5 861.66-1.35 860.64-2.93 859.61-4.5 859.61-6.65L859.61-6.65Q859.61-9.8 861.96-11.83 864.31-13.85 868.76-14.3L868.76-14.3 876.46-15.15 876.46-17.15Q876.46-19.25 874.91-20.53 873.36-21.8 870.71-21.8L870.71-21.8Q868.11-21.8 866.39-20.6 864.66-19.4 864.01-17.15L864.01-17.15 860.61-18.35Q861.61-21.65 864.29-23.5 866.96-25.35 870.81-25.35L870.81-25.35Q875.26-25.35 877.74-23.08 880.21-20.8 880.21-16.9L880.21-16.9 880.21 0ZM876.46-11.15L876.46-11.95 868.71-11.05Q866.21-10.75 864.91-9.68 863.61-8.6 863.61-6.85L863.61-6.85Q863.61-5.1 864.89-4.05 866.16-3 868.56-3L868.56-3Q871.31-3 873.06-4.1 874.81-5.2 875.64-7.08 876.46-8.95 876.46-11.15L876.46-11.15ZM887.51 0L887.51-36 891.26-36 891.26 0 887.51 0ZM898.91 0L898.91-36 902.66-36 902.66 0 898.91 0ZM919.51-4.8L927.26-25 931.16-25 916.86 10 913.26 10 917.51-0.35 907.41-25 911.51-25 919.51-4.8ZM936.8-9.55L936.35-35 940.6-35 940.15-9.55 936.8-9.55ZM938.65 0.2L938.65 0.2Q937.45 0.2 936.7-0.6 935.95-1.4 935.95-2.55L935.95-2.55Q935.95-3.7 936.7-4.5 937.45-5.3 938.65-5.3L938.65-5.3Q939.75-5.3 940.55-4.5 941.35-3.7 941.35-2.55L941.35-2.55Q941.35-1.4 940.55-0.6 939.75 0.2 938.65 0.2Z" opacity="1" transform="matrix(1,0,0,1,0,0)" fill="#00d1cd" class="slogan-text-1" data-fill-palette-color="secondary" id="text-1"></path></svg></g></svg></g></svg></g></svg></g></svg></g><defs></defs></svg><rect width="395.52" height="123.43807877384185" fill="none" stroke="none" visibility="hidden"></rect></g></svg></g></svg>